# xmcd
#
# Track frame offsets: 
#        150
#        15270
#        32862
#        48617
#        63812
#        82710
#        96817
#        114752
#        128900
#        149985
#
# Disc length: 2184 seconds
#
# Revision: 3
# Processed by: cddbd v1.5.2PL0 Copyright (c) Steve Scherf et al.
# Submitted via: ExactAudioCopy v1.0b3
#
DISCID=7b08860a
DTITLE=Nitty Gritty Dirt Band - Hold On
DYEAR=1987
DGENRE=Country
TTITLE0=Fishin' In The Dark
TTITLE1=Joe Knows How To Live
TTITLE2=Keepin' the Road Hot
TTITLE3=Blue Ridge Mountain Girl
TTITLE4=Angelyne
TTITLE5=Baby's Got A Hold On Me
TTITLE6=Dancing To The Beat Of A Broken Heart
TTITLE7=Oh What A Love
TTITLE8=Oleanna
TTITLE9=Tennessee
EXTD=
EXTT0=
EXTT1=
EXTT2=
EXTT3=
EXTT4=
EXTT5=
EXTT6=
EXTT7=
EXTT8=
EXTT9=
PLAYORDER=
